<?xml version="1.0" encoding="UTF-8"?>
<svg id="Layer_2" data-name="Layer 2" xmlns="http://www.w3.org/2000/svg" viewBox="0 0 191.19 46.45">
  <defs>
    <style>
      .cls-1 {
        fill: #fff;
        stroke-width: 0px;
      }
    </style>
  </defs>
  <g id="Layer_1-2" data-name="Layer 1">
    <g>
      <g>
        <polygon class="cls-1" points="186.59 11.4 186.59 41.72 163.26 11.4 150.07 11.4 146.54 11.4 136.31 11.4 136.31 34.82 150.07 34.82 150.07 16 173.4 46.33 186.59 46.33 190.13 46.33 191.19 46.33 191.19 11.4 186.59 11.4"/>
        <polygon class="cls-1" points="102.91 11.4 76.81 11.4 76.81 11.4 60.08 11.4 41.89 11.4 41.89 16 63.62 16 78.1 34.82 94.83 34.82 80.35 16 78.57 13.69 102.91 13.69 102.91 16 98.31 16 98.31 34.82 102.91 34.82 102.91 34.82 132.82 34.82 132.82 25.81 102.91 25.81 102.91 23.11 132.82 23.11 132.82 18.52 103.02 18.52 103.02 16 132.82 16 132.82 11.4 103.68 11.4 102.91 11.4"/>
      </g>
      <g>
        <polygon class="cls-1" points="14.27 14.01 14.27 11.77 6.48 11.77 8.72 14.01 14.27 14.01"/>
        <polygon class="cls-1" points="16.85 46.45 19.08 46.45 19.08 26.62 16.87 28.84 16.85 46.45"/>
        <polygon class="cls-1" points="22.5 43.04 24.74 40.8 24.74 23.92 22.5 23.92 22.5 43.04"/>
        <polygon class="cls-1" points="28.15 37.4 30.39 35.15 30.39 28.11 28.15 25.87 28.15 37.4"/>
        <polygon class="cls-1" points="30.39 24.91 27.14 18.5 19.62 18.5 11.19 26.92 11.19 40.8 13.43 43.03 13.43 27.85 20.54 20.73 26.21 20.73 30.39 24.91"/>
        <polygon class="cls-1" points="11.1 18.5 5.54 24.06 5.54 35.17 7.79 37.4 7.79 24.96 14.27 18.5 11.1 18.5"/>
        <polygon class="cls-1" points="2.12 31.73 2.12 27.48 0 29.6 2.12 31.73"/>
        <polygon class="cls-1" points="6.2 6.89 16.65 9.47 21.57 14.54 21.57 14.54 20.44 15.67 23.61 15.65 24.74 14.54 19.98 9.63 23.77 5.84 17.92 0 2.28 0 6.8 4.53 3.84 4.53 6.2 6.89"/>
      </g>
    </g>
  </g>
</svg>