<svg width="400" height="400" viewBox="0 0 400 400" fill="none" xmlns="http://www.w3.org/2000/svg">
<rect width="400" height="400" fill="black"/>
<g clip-path="url(#clip0_15_26)">
<path d="M108.362 167.565V241.1C108.362 249.081 103.231 251.788 98.2433 251.788C93.2554 251.788 88.2675 249.081 88.2675 241.1V167.565H70.0261C63.0431 167.565 60.1929 164.002 60.1929 159.156C60.1929 154.311 63.0431 150.606 70.0261 150.606H126.603C133.586 150.606 136.436 154.311 136.436 159.156C136.436 164.002 133.586 167.565 126.603 167.565H108.362ZM163.07 150.606H205.111C212.094 150.606 214.944 154.311 214.944 159.156C214.944 164.002 212.094 167.565 205.111 167.565H168.771V191.934H202.973C209.956 191.934 212.806 195.639 212.806 200.485C212.806 205.33 209.956 208.893 202.973 208.893H168.771V233.405H206.536C213.519 233.405 216.369 237.11 216.369 241.955C216.369 246.801 213.519 250.363 206.536 250.363H163.07C152.239 250.363 148.677 246.658 148.677 235.827V165.142C148.677 154.311 152.239 150.606 163.07 150.606ZM284.412 243.095L249.211 190.081V241.1C249.211 249.081 244.081 251.788 239.093 251.788C234.105 251.788 229.117 249.081 229.117 241.1V161.722C229.117 153.171 233.25 149.181 239.521 149.181C244.651 149.181 247.786 151.176 252.204 157.874L287.404 211.03V159.869C287.404 151.888 292.392 149.181 297.38 149.181C302.368 149.181 307.498 151.888 307.498 159.869V239.247C307.498 247.798 303.365 251.788 297.095 251.788C291.965 251.788 288.829 249.793 284.412 243.095ZM319.465 242.383C319.465 237.252 323.74 232.977 329.013 232.977C334.286 232.977 338.561 237.252 338.561 242.383C338.561 247.513 334.286 251.788 329.013 251.788C323.74 251.788 319.465 247.513 319.465 242.383Z" fill="white"/>
</g>
<defs>
<clipPath id="clip0_15_26">
<rect width="279" height="102.869" fill="white" transform="translate(60 149)"/>
</clipPath>
</defs>
</svg>
