<svg version="1.1" id="Layer_1" xmlns="http://www.w3.org/2000/svg" xmlns:xlink="http://www.w3.org/1999/xlink" x="0px" y="0px"
	 width="100%" viewBox="0 0 400 400" enable-background="new 0 0 400 400" xml:space="preserve">
<path fill="#000000" opacity="1.000000" stroke="none"
	d="
M191.000000,401.000000 
	C127.353073,401.000000 64.206139,401.000000 1.029604,401.000000 
	C1.029604,267.728058 1.029604,134.456131 1.029604,1.092094 
	C134.230225,1.092094 267.460510,1.092094 400.845398,1.092094 
	C400.845398,134.333191 400.845398,267.666565 400.845398,401.000000 
	C331.122864,401.000000 261.311432,401.000000 191.000000,401.000000 
M198.508163,128.313004 
	C211.129532,128.379120 222.786133,131.172852 232.927292,139.307755 
	C247.942673,151.352600 253.988632,167.948135 256.877258,186.027267 
	C258.146912,193.973755 258.157471,202.121460 258.741608,210.204056 
	C268.722443,210.204056 278.645020,210.204056 288.782379,210.204056 
	C289.494080,192.780533 287.694916,175.990845 281.866974,159.832001 
	C256.929443,90.689034 181.465561,89.971016 146.399094,117.587372 
	C116.346283,141.255280 108.407661,173.834549 108.979568,210.136475 
	C119.403488,210.136475 129.448318,210.136475 139.666626,210.136475 
	C139.093414,194.997421 140.830017,180.583344 145.891205,166.607910 
	C154.623505,142.495392 172.888992,128.860367 198.508163,128.313004 
M309.954956,311.383759 
	C316.633240,322.471344 327.925262,326.727051 338.815216,322.260468 
	C349.069397,318.054688 355.009918,306.752258 352.482513,296.257233 
	C349.346893,283.236450 336.363556,275.626587 323.710907,279.393433 
	C310.501984,283.325897 304.451904,296.769043 309.954956,311.383759 
z"/>
<path fill="#FCFCFC" opacity="1.000000" stroke="none" 
	d="
M198.014771,128.312988 
	C172.888992,128.860367 154.623505,142.495392 145.891205,166.607910 
	C140.830017,180.583344 139.093414,194.997421 139.666626,210.136475 
	C129.448318,210.136475 119.403488,210.136475 108.979568,210.136475 
	C108.407661,173.834549 116.346283,141.255280 146.399094,117.587372 
	C181.465561,89.971016 256.929443,90.689034 281.866974,159.832001 
	C287.694916,175.990845 289.494080,192.780533 288.782379,210.204056 
	C278.645020,210.204056 268.722443,210.204056 258.741608,210.204056 
	C258.157471,202.121460 258.146912,193.973755 256.877258,186.027267 
	C253.988632,167.948135 247.942673,151.352600 232.927292,139.307755 
	C222.786133,131.172852 211.129532,128.379120 198.014771,128.312988 
z"/>
<path fill="#FCFCFC" opacity="1.000000" stroke="none" 
	d="
M309.789795,311.038330 
	C304.451904,296.769043 310.501984,283.325897 323.710907,279.393433 
	C336.363556,275.626587 349.346893,283.236450 352.482513,296.257233 
	C355.009918,306.752258 349.069397,318.054688 338.815216,322.260468 
	C327.925262,326.727051 316.633240,322.471344 309.789795,311.038330 
z"/>
</svg>